<svg width="268" height="57" viewBox="0 0 268 57" fill="none" xmlns="http://www.w3.org/2000/svg">
<path d="M60.0691 14.0172H66.3248V16.5153H60.0691V14.0172ZM60.2919 19.7271H67.3643V22.3045H57.3033V8.42627H67.123V11.0037H60.2919V19.7271ZM69.5705 22.3045V11.6381H74.6752C75.9252 11.6381 76.9028 11.8826 77.6082 12.3717C78.3135 12.8475 78.6662 13.5216 78.6662 14.3939C78.6662 15.2663 78.3321 15.9536 77.6638 16.4558C77.008 16.9449 76.1355 17.1894 75.0465 17.1894L75.3435 16.4757C76.5563 16.4757 77.4597 16.7136 78.0537 17.1894C78.6601 17.6652 78.9632 18.3591 78.9632 19.2711C78.9632 20.2095 78.6291 20.9498 77.9609 21.4917C77.2926 22.0335 76.2716 22.3045 74.898 22.3045H69.5705ZM72.225 20.203H74.6567C75.1889 20.203 75.5848 20.1104 75.8447 19.9254C76.117 19.7271 76.2531 19.4297 76.2531 19.0332C76.2531 18.6234 76.1294 18.3261 75.8818 18.1411C75.6344 17.9428 75.2445 17.8437 74.7124 17.8437H72.225V20.203ZM72.225 16.0197H74.4154C74.9228 16.0197 75.3002 15.9205 75.5477 15.7223C75.8076 15.524 75.9375 15.2399 75.9375 14.8697C75.9375 14.4865 75.8076 14.2022 75.5477 14.0172C75.3002 13.8322 74.9228 13.7397 74.4154 13.7397H72.225V16.0197ZM87.0023 22.4631C86.1607 22.4631 85.4245 22.2649 84.7933 21.8684C84.1622 21.4718 83.6672 20.8705 83.3083 20.0642C82.9618 19.2447 82.7886 18.2138 82.7886 16.9713C82.7886 15.7157 82.9556 14.6847 83.2898 13.8784C83.6239 13.0721 84.1065 12.4708 84.7377 12.0743C85.3688 11.6777 86.1236 11.4795 87.0023 11.4795C87.9427 11.4795 88.7843 11.7108 89.5267 12.1734C90.2817 12.6228 90.8757 13.2573 91.3089 14.0767C91.7544 14.8961 91.9771 15.8611 91.9771 16.9713C91.9771 18.0948 91.7544 19.0663 91.3089 19.8857C90.8757 20.7052 90.2817 21.3396 89.5267 21.7891C88.7843 22.2385 87.9427 22.4631 87.0023 22.4631ZM81.0994 26.1508V11.6381H83.8652V13.819L83.8095 16.9911L83.9951 20.1435V26.1508H81.0994ZM86.5011 19.9254C86.9837 19.9254 87.4107 19.8064 87.782 19.5685C88.1655 19.3306 88.4688 18.9936 88.6915 18.5574C88.9266 18.108 89.0442 17.5794 89.0442 16.9713C89.0442 16.3501 88.9266 15.8214 88.6915 15.3852C88.4688 14.9491 88.1655 14.612 87.782 14.3741C87.4107 14.1362 86.9837 14.0172 86.5011 14.0172C86.0185 14.0172 85.5853 14.1362 85.2017 14.3741C84.8181 14.612 84.5149 14.9491 84.2921 15.3852C84.0694 15.8214 83.958 16.3501 83.958 16.9713C83.958 17.5794 84.0694 18.108 84.2921 18.5574C84.5149 18.9936 84.8181 19.3306 85.2017 19.5685C85.5853 19.8064 86.0185 19.9254 86.5011 19.9254ZM98.6844 22.4631C97.6202 22.4631 96.6735 22.2252 95.8443 21.7494C95.0276 21.2736 94.3779 20.6259 93.8952 19.8064C93.425 18.9737 93.1899 18.0287 93.1899 16.9713C93.1899 15.9007 93.425 14.9556 93.8952 14.1362C94.3779 13.3035 95.0276 12.6558 95.8443 12.1932C96.6735 11.7174 97.6202 11.4795 98.6844 11.4795C99.7364 11.4795 100.677 11.7174 101.506 12.1932C102.335 12.6558 102.985 13.2969 103.455 14.1164C103.925 14.9358 104.16 15.8874 104.16 16.9713C104.16 18.0287 103.925 18.9737 103.455 19.8064C102.985 20.6259 102.335 21.2736 101.506 21.7494C100.677 22.2252 99.7364 22.4631 98.6844 22.4631ZM98.6844 19.9254C99.1671 19.9254 99.6003 19.8064 99.9838 19.5685C100.368 19.3306 100.671 18.9936 100.893 18.5574C101.116 18.108 101.228 17.5794 101.228 16.9713C101.228 16.3501 101.116 15.8214 100.893 15.3852C100.671 14.9491 100.368 14.612 99.9838 14.3741C99.6003 14.1362 99.1671 14.0172 98.6844 14.0172C98.2018 14.0172 97.7687 14.1362 97.3851 14.3741C97.0015 14.612 96.6921 14.9491 96.4569 15.3852C96.2342 15.8214 96.1228 16.3501 96.1228 16.9713C96.1228 17.5794 96.2342 18.108 96.4569 18.5574C96.6921 18.9936 97.0015 19.3306 97.3851 19.5685C97.7687 19.8064 98.2018 19.9254 98.6844 19.9254ZM112.445 18.2204C112.037 18.4583 111.585 18.65 111.09 18.7953C110.595 18.9407 110.05 19.0134 109.456 19.0134C108.145 19.0134 107.136 18.6962 106.431 18.0617C105.725 17.4141 105.373 16.3898 105.373 14.9887V11.6381H108.268V14.7904C108.268 15.4513 108.429 15.9271 108.751 16.2179C109.073 16.4955 109.524 16.6343 110.106 16.6343C110.527 16.6343 110.929 16.5814 111.313 16.4757C111.709 16.37 112.086 16.2179 112.445 16.0197V18.2204ZM112.241 22.3045V11.6381H115.137V22.3045H112.241ZM117.918 22.3045V11.6381H120.795V17.9824L125.658 11.6381H128.313V22.3045H125.436V15.9602L120.591 22.3045H117.918ZM135.848 22.4631C134.772 22.4631 133.812 22.2318 132.971 21.7692C132.13 21.2934 131.467 20.6391 130.985 19.8064C130.515 18.9737 130.279 18.0287 130.279 16.9713C130.279 15.9007 130.515 14.9556 130.985 14.1362C131.467 13.3035 132.13 12.6558 132.971 12.1932C133.812 11.7174 134.772 11.4795 135.848 11.4795C136.9 11.4795 137.816 11.7174 138.595 12.1932C139.375 12.6558 139.951 13.3233 140.322 14.1957L138.076 15.4844C137.816 14.9821 137.487 14.612 137.092 14.3741C136.708 14.1362 136.288 14.0172 135.83 14.0172C135.334 14.0172 134.889 14.1362 134.493 14.3741C134.097 14.612 133.782 14.9491 133.546 15.3852C133.324 15.8214 133.212 16.3501 133.212 16.9713C133.212 17.5925 133.324 18.1212 133.546 18.5574C133.782 18.9936 134.097 19.3306 134.493 19.5685C134.889 19.8064 135.334 19.9254 135.83 19.9254C136.288 19.9254 136.708 19.813 137.092 19.5884C137.487 19.3504 137.816 18.9737 138.076 18.4583L140.322 19.7668C139.951 20.6259 139.375 21.2934 138.595 21.7692C137.816 22.2318 136.9 22.4631 135.848 22.4631ZM144.198 22.3045V13.4621L144.848 14.1758H140.819V11.6381H150.454V14.1758H146.425L147.075 13.4621V22.3045H144.198ZM159.07 22.3045L155.729 17.2489L158.086 15.7619L162.486 22.3045H159.07ZM151.998 22.3045V11.6381H154.894V22.3045H151.998ZM154.04 18.26V15.7817H157.529V18.26H154.04ZM158.365 17.3282L155.655 17.011L159.163 11.6381H162.244L158.365 17.3282ZM169.703 22.3045V20.2228L169.518 19.7668V16.0395C169.518 15.3787 169.326 14.8632 168.942 14.4931C168.571 14.1229 167.995 13.9379 167.216 13.9379C166.683 13.9379 166.158 14.0305 165.638 14.2155C165.131 14.3874 164.697 14.6253 164.339 14.9292L163.299 12.7682C163.843 12.3584 164.5 12.0412 165.267 11.8165C166.034 11.5918 166.813 11.4795 167.606 11.4795C169.128 11.4795 170.31 11.8628 171.151 12.6294C171.992 13.3961 172.413 14.5922 172.413 16.2179V22.3045H169.703ZM166.659 22.4631C165.879 22.4631 165.211 22.3244 164.654 22.0468C164.097 21.756 163.67 21.3661 163.373 20.8771C163.076 20.388 162.928 19.8395 162.928 19.2315C162.928 18.5971 163.07 18.0419 163.355 17.5661C163.652 17.0903 164.116 16.7201 164.747 16.4558C165.378 16.1783 166.201 16.0395 167.216 16.0395H169.87V17.8437H167.531C166.85 17.8437 166.38 17.9626 166.121 18.2005C165.873 18.4384 165.749 18.7358 165.749 19.0927C165.749 19.4892 165.892 19.8064 166.176 20.0444C166.473 20.269 166.876 20.3814 167.383 20.3814C167.865 20.3814 168.298 20.2624 168.682 20.0245C169.066 19.7734 169.345 19.4099 169.518 18.9341L169.963 20.3616C169.753 21.0489 169.369 21.571 168.812 21.9278C168.255 22.2847 167.537 22.4631 166.659 22.4631Z" fill="white"/>
<path d="M58.0203 40.8911V34.3857H63.4963V40.8911H62.6726V34.9185L62.8814 35.154H58.6352L58.844 34.9185V40.8911H58.0203ZM70.0261 40.9531C69.5001 40.9531 69.0244 40.8251 68.5991 40.569C68.1736 40.3046 67.8334 39.9287 67.5781 39.4413C67.3305 38.9457 67.2069 38.3426 67.2069 37.6322C67.2069 36.9218 67.3305 36.3228 67.5781 35.8355C67.8256 35.3398 68.162 34.964 68.5875 34.7079C69.0128 34.4517 69.4924 34.3237 70.0261 34.3237C70.6062 34.3237 71.1243 34.4641 71.5807 34.745C72.0448 35.0176 72.4083 35.4059 72.6713 35.9098C72.9342 36.4055 73.0657 36.9796 73.0657 37.6322C73.0657 38.293 72.9342 38.8713 72.6713 39.367C72.4083 39.8626 72.0448 40.2509 71.5807 40.5318C71.1243 40.8127 70.6062 40.9531 70.0261 40.9531ZM66.882 43.295V34.3857H67.6709V36.3435L67.5897 37.6446L67.7057 38.9581V43.295H66.882ZM69.9681 40.1724C70.4012 40.1724 70.7879 40.0692 71.1282 39.8626C71.4685 39.6479 71.7392 39.3505 71.9404 38.9705C72.1414 38.5823 72.242 38.1362 72.242 37.6322C72.242 37.1283 72.1414 36.6864 71.9404 36.3063C71.7392 35.9263 71.4685 35.6289 71.1282 35.4142C70.7879 35.1994 70.4012 35.092 69.9681 35.092C69.5349 35.092 69.1444 35.1994 68.7963 35.4142C68.4559 35.6289 68.1852 35.9263 67.9842 36.3063C67.7908 36.6864 67.6941 37.1283 67.6941 37.6322C67.6941 38.1362 67.7908 38.5823 67.9842 38.9705C68.1852 39.3505 68.4559 39.6479 68.7963 39.8626C69.1444 40.0692 69.5349 40.1724 69.9681 40.1724ZM78.3857 40.9531C77.7978 40.9531 77.268 40.8127 76.7963 40.5318C76.3322 40.2427 75.9648 39.8503 75.6941 39.3546C75.4233 38.8506 75.2881 38.2766 75.2881 37.6322C75.2881 36.9796 75.4233 36.4055 75.6941 35.9098C75.9648 35.4142 76.3322 35.026 76.7963 34.745C77.2603 34.4641 77.7901 34.3237 78.3857 34.3237C78.989 34.3237 79.5227 34.4641 79.9868 34.745C80.4585 35.026 80.8259 35.4142 81.0889 35.9098C81.3596 36.4055 81.495 36.9796 81.495 37.6322C81.495 38.2766 81.3596 38.8506 81.0889 39.3546C80.8259 39.8503 80.4585 40.2427 79.9868 40.5318C79.5149 40.8127 78.9812 40.9531 78.3857 40.9531ZM78.3857 40.1724C78.8266 40.1724 79.2171 40.0692 79.5575 39.8626C79.8978 39.6479 80.1646 39.3505 80.358 38.9705C80.5591 38.5823 80.6597 38.1362 80.6597 37.6322C80.6597 37.1201 80.5591 36.674 80.358 36.294C80.1646 35.9139 79.8978 35.6207 79.5575 35.4142C79.2171 35.1994 78.8304 35.092 78.3973 35.092C77.9641 35.092 77.5774 35.1994 77.2371 35.4142C76.8967 35.6207 76.6261 35.9139 76.425 36.294C76.2239 36.674 76.1234 37.1201 76.1234 37.6322C76.1234 38.1362 76.2239 38.5823 76.425 38.9705C76.6261 39.3505 76.8967 39.6479 77.2371 39.8626C77.5774 40.0692 77.9603 40.1724 78.3857 40.1724ZM87.7221 40.9655C87.7221 40.9655 87.7065 40.9655 87.6757 40.9655C87.6447 40.9655 87.6137 40.9655 87.5829 40.9655C87.5597 40.9655 87.5403 40.9655 87.5249 40.9655C86.3183 40.9572 85.3785 40.664 84.7056 40.0857C84.0327 39.5074 83.6963 38.6855 83.6963 37.6198C83.6963 36.5706 84.0327 35.7611 84.7056 35.1911C85.3862 34.6128 86.3415 34.3196 87.5713 34.3113C87.5789 34.3113 87.5945 34.3113 87.6177 34.3113C87.6485 34.3113 87.6757 34.3113 87.6989 34.3113C87.7221 34.3113 87.7375 34.3113 87.7453 34.3113C88.9827 34.3196 89.9457 34.6128 90.6341 35.1911C91.3225 35.7611 91.6667 36.5706 91.6667 37.6198C91.6667 38.6938 91.3186 39.5198 90.6225 40.0981C89.9341 40.6764 88.9673 40.9655 87.7221 40.9655ZM87.7105 40.1972C88.3988 40.1972 88.9751 40.0981 89.4392 39.8998C89.9032 39.6933 90.2551 39.4001 90.4949 39.02C90.7346 38.64 90.8546 38.1733 90.8546 37.6198C90.8546 37.0829 90.7346 36.6285 90.4949 36.2568C90.2551 35.8767 89.9032 35.5876 89.4392 35.3894C88.9751 35.1911 88.3988 35.092 87.7105 35.092C87.7027 35.092 87.6795 35.092 87.6409 35.092C87.6099 35.092 87.5905 35.092 87.5829 35.092C86.91 35.092 86.3453 35.1952 85.889 35.4018C85.4326 35.6 85.0885 35.885 84.8565 36.2568C84.6244 36.6285 84.5084 37.0829 84.5084 37.6198C84.5084 38.165 84.6244 38.6276 84.8565 39.0076C85.0962 39.3877 85.4442 39.6809 85.9006 39.8874C86.3569 40.0857 86.9176 40.1889 87.5829 40.1972C87.5983 40.1972 87.6215 40.1972 87.6525 40.1972C87.6833 40.1972 87.7027 40.1972 87.7105 40.1972ZM87.2696 43.295V31.6968H88.0701V43.295H87.2696ZM97.0632 40.9531C96.4291 40.9531 95.8722 40.8127 95.3926 40.5318C94.9131 40.2427 94.538 39.8503 94.2672 39.3546C93.9965 38.8506 93.8612 38.2766 93.8612 37.6322C93.8612 36.9879 93.9888 36.4179 94.244 35.9222C94.507 35.4266 94.8628 35.0383 95.3114 34.7574C95.7678 34.4683 96.2783 34.3237 96.8428 34.3237C97.4152 34.3237 97.9218 34.4641 98.3626 34.745C98.8113 35.0176 99.1631 35.4059 99.4184 35.9098C99.6736 36.4055 99.8012 36.9796 99.8012 37.6322C99.8012 37.6735 99.7974 37.719 99.7896 37.7685C99.7896 37.8098 99.7896 37.8553 99.7896 37.9048H94.4876V37.2481H99.3488L99.0239 37.5083C99.0239 37.0374 98.9273 36.6202 98.7339 36.2568C98.5482 35.885 98.293 35.5959 97.9682 35.3894C97.6433 35.1828 97.2682 35.0796 96.8428 35.0796C96.4251 35.0796 96.05 35.1828 95.7174 35.3894C95.3849 35.5959 95.1257 35.885 94.9401 36.2568C94.7545 36.6285 94.6617 37.0539 94.6617 37.5331V37.6694C94.6617 38.165 94.7623 38.6028 94.9633 38.9829C95.1721 39.3546 95.4584 39.6479 95.8218 39.8626C96.1931 40.0692 96.6147 40.1724 97.0864 40.1724C97.4577 40.1724 97.8019 40.1022 98.119 39.9618C98.4438 39.8214 98.7223 39.6065 98.9543 39.3174L99.4184 39.8874C99.1477 40.2344 98.8074 40.4987 98.3974 40.6805C97.9953 40.8623 97.5505 40.9531 97.0632 40.9531ZM105.221 40.9531C104.618 40.9531 104.076 40.8127 103.597 40.5318C103.125 40.2427 102.754 39.8503 102.483 39.3546C102.212 38.8506 102.077 38.2766 102.077 37.6322C102.077 36.9796 102.212 36.4055 102.483 35.9098C102.754 35.4142 103.125 35.026 103.597 34.745C104.076 34.4641 104.618 34.3237 105.221 34.3237C105.739 34.3237 106.207 34.4312 106.625 34.6459C107.043 34.8606 107.371 35.1828 107.611 35.6124L106.996 36.0585C106.787 35.728 106.528 35.4844 106.219 35.3274C105.91 35.1704 105.573 35.092 105.21 35.092C104.776 35.092 104.386 35.1994 104.038 35.4142C103.69 35.6207 103.415 35.9139 103.214 36.294C103.013 36.674 102.912 37.1201 102.912 37.6322C102.912 38.1443 103.013 38.5904 103.214 38.9705C103.415 39.3505 103.69 39.6479 104.038 39.8626C104.386 40.0692 104.776 40.1724 105.21 40.1724C105.573 40.1724 105.91 40.094 106.219 39.937C106.528 39.78 106.787 39.5405 106.996 39.2183L107.611 39.6644C107.371 40.0857 107.043 40.4079 106.625 40.6309C106.207 40.8457 105.739 40.9531 105.221 40.9531ZM112.701 40.9531C112.097 40.9531 111.556 40.8127 111.076 40.5318C110.605 40.2427 110.233 39.8503 109.963 39.3546C109.692 38.8506 109.557 38.2766 109.557 37.6322C109.557 36.9796 109.692 36.4055 109.963 35.9098C110.233 35.4142 110.605 35.026 111.076 34.745C111.556 34.4641 112.097 34.3237 112.701 34.3237C113.219 34.3237 113.687 34.4312 114.105 34.6459C114.522 34.8606 114.851 35.1828 115.091 35.6124L114.476 36.0585C114.267 35.728 114.008 35.4844 113.698 35.3274C113.389 35.1704 113.053 35.092 112.689 35.092C112.256 35.092 111.865 35.1994 111.517 35.4142C111.169 35.6207 110.895 35.9139 110.694 36.294C110.492 36.674 110.392 37.1201 110.392 37.6322C110.392 38.1443 110.492 38.5904 110.694 38.9705C110.895 39.3505 111.169 39.6479 111.517 39.8626C111.865 40.0692 112.256 40.1724 112.689 40.1724C113.053 40.1724 113.389 40.094 113.698 39.937C114.008 39.78 114.267 39.5405 114.476 39.2183L115.091 39.6644C114.851 40.0857 114.522 40.4079 114.105 40.6309C113.687 40.8457 113.219 40.9531 112.701 40.9531ZM117.73 40.8911V34.3857H118.553V39.5529L122.626 34.3857H123.357V40.8911H122.533V35.7116L118.472 40.8911H117.73ZM129.268 40.9531C128.679 40.9531 128.149 40.8127 127.678 40.5318C127.214 40.2427 126.846 39.8503 126.576 39.3546C126.305 38.8506 126.17 38.2766 126.17 37.6322C126.17 36.9796 126.305 36.4055 126.576 35.9098C126.846 35.4142 127.214 35.026 127.678 34.745C128.142 34.4641 128.671 34.3237 129.268 34.3237C129.871 34.3237 130.405 34.4641 130.869 34.745C131.34 35.026 131.708 35.4142 131.971 35.9098C132.241 36.4055 132.377 36.9796 132.377 37.6322C132.377 38.2766 132.241 38.8506 131.971 39.3546C131.708 39.8503 131.34 40.2427 130.869 40.5318C130.397 40.8127 129.863 40.9531 129.268 40.9531ZM129.268 40.1724C129.709 40.1724 130.098 40.0692 130.439 39.8626C130.779 39.6479 131.046 39.3505 131.24 38.9705C131.441 38.5823 131.542 38.1362 131.542 37.6322C131.542 37.1201 131.441 36.674 131.24 36.294C131.046 35.9139 130.779 35.6207 130.439 35.4142C130.098 35.1994 129.712 35.092 129.279 35.092C128.845 35.092 128.459 35.1994 128.119 35.4142C127.778 35.6207 127.508 35.9139 127.307 36.294C127.105 36.674 127.005 37.1201 127.005 37.6322C127.005 38.1362 127.105 38.5823 127.307 38.9705C127.508 39.3505 127.778 39.6479 128.119 39.8626C128.459 40.0692 128.842 40.1724 129.268 40.1724ZM135.181 40.8911V34.3857H136.005V37.2605H139.845V34.3857H140.669V40.8911H139.845V38.0163H136.005V40.8911H135.181ZM147.836 40.8911V39.4537L147.801 39.2183V36.8144C147.801 36.2609 147.655 35.8355 147.361 35.5381C147.075 35.2407 146.646 35.092 146.073 35.092C145.678 35.092 145.304 35.1623 144.947 35.3026C144.592 35.443 144.291 35.6289 144.042 35.8603L143.671 35.2035C143.981 34.9226 144.352 34.7079 144.785 34.5592C145.219 34.4022 145.675 34.3237 146.154 34.3237C146.943 34.3237 147.551 34.5344 147.975 34.9557C148.409 35.3687 148.625 36.0006 148.625 36.8516V40.8911H147.836ZM145.736 40.9531C145.28 40.9531 144.882 40.8746 144.541 40.7176C144.21 40.5525 143.954 40.3294 143.776 40.0485C143.598 39.7594 143.509 39.429 143.509 39.0572C143.509 38.7186 143.583 38.4129 143.729 38.1403C143.885 37.8593 144.132 37.6363 144.472 37.4711C144.82 37.2976 145.284 37.2109 145.864 37.2109H147.964V37.8676H145.887C145.3 37.8676 144.889 37.9792 144.657 38.2022C144.433 38.4253 144.321 38.702 144.321 39.0324C144.321 39.4042 144.457 39.7016 144.727 39.9246C144.998 40.1476 145.377 40.2592 145.864 40.2592C146.328 40.2592 146.727 40.1476 147.059 39.9246C147.4 39.6933 147.647 39.3629 147.801 38.9333L147.987 39.5405C147.833 39.9701 147.562 40.3128 147.175 40.569C146.797 40.8251 146.316 40.9531 145.736 40.9531ZM150.748 40.8787L150.806 40.1229C150.861 40.1312 150.911 40.1436 150.957 40.16C151.012 40.1683 151.058 40.1724 151.096 40.1724C151.345 40.1724 151.542 40.0733 151.688 39.875C151.843 39.6768 151.959 39.4125 152.036 39.082C152.114 38.7515 152.168 38.3798 152.198 37.9668C152.23 37.5455 152.256 37.1242 152.28 36.7029L152.384 34.3857H156.851V40.8911H156.027V34.8937L156.236 35.154H152.918L153.115 34.8813L153.022 36.7648C152.999 37.3265 152.957 37.8636 152.895 38.3757C152.841 38.8878 152.752 39.3381 152.628 39.7263C152.512 40.1146 152.349 40.4203 152.14 40.6433C151.932 40.858 151.665 40.9655 151.34 40.9655C151.247 40.9655 151.151 40.9572 151.05 40.9407C150.957 40.9242 150.857 40.9035 150.748 40.8787ZM162.859 36.6781C163.625 36.6864 164.205 36.868 164.6 37.2233C165.001 37.5786 165.203 38.0907 165.203 38.7598C165.203 39.4537 164.986 39.9866 164.553 40.3583C164.127 40.73 163.509 40.9118 162.697 40.9035L160.237 40.8911V34.3857H161.061V36.6533L162.859 36.6781ZM162.65 40.2344C163.214 40.2427 163.64 40.1229 163.927 39.875C164.22 39.6189 164.368 39.2472 164.368 38.7598C164.368 38.2725 164.224 37.9172 163.938 37.6942C163.652 37.4628 163.222 37.3431 162.65 37.3348L161.061 37.31V40.2096L162.65 40.2344ZM167.818 40.8911V34.3857H168.642V37.2605H172.482V34.3857H173.306V40.8911H172.482V38.0163H168.642V40.8911H167.818ZM180.473 40.8911V39.4537L180.438 39.2183V36.8144C180.438 36.2609 180.292 35.8355 179.997 35.5381C179.712 35.2407 179.283 35.092 178.71 35.092C178.315 35.092 177.94 35.1623 177.584 35.3026C177.229 35.443 176.928 35.6289 176.679 35.8603L176.308 35.2035C176.618 34.9226 176.989 34.7079 177.422 34.5592C177.856 34.4022 178.312 34.3237 178.791 34.3237C179.58 34.3237 180.188 34.5344 180.612 34.9557C181.046 35.3687 181.262 36.0006 181.262 36.8516V40.8911H180.473ZM178.373 40.9531C177.917 40.9531 177.519 40.8746 177.178 40.7176C176.846 40.5525 176.591 40.3294 176.412 40.0485C176.235 39.7594 176.146 39.429 176.146 39.0572C176.146 38.7186 176.22 38.4129 176.366 38.1403C176.522 37.8593 176.769 37.6363 177.109 37.4711C177.457 37.2976 177.921 37.2109 178.501 37.2109H180.601V37.8676H178.524C177.937 37.8676 177.526 37.9792 177.294 38.2022C177.07 38.4253 176.958 38.702 176.958 39.0324C176.958 39.4042 177.093 39.7016 177.364 39.9246C177.635 40.1476 178.013 40.2592 178.501 40.2592C178.965 40.2592 179.364 40.1476 179.696 39.9246C180.037 39.6933 180.284 39.3629 180.438 38.9333L180.624 39.5405C180.47 39.9701 180.199 40.3128 179.812 40.569C179.434 40.8251 178.953 40.9531 178.373 40.9531ZM188.433 40.8911V38.5492L188.584 38.735H186.519C185.737 38.735 185.127 38.5533 184.686 38.1898C184.245 37.8264 184.024 37.2976 184.024 36.6037C184.024 35.8603 184.26 35.3067 184.732 34.9433C185.203 34.5716 185.834 34.3857 186.623 34.3857H189.187V40.8911H188.433ZM183.978 40.8911L185.649 38.3881H186.507L184.871 40.8911H183.978ZM188.433 38.289V34.8937L188.584 35.154H186.646C186.081 35.154 185.64 35.2696 185.324 35.5009C185.014 35.7323 184.86 36.1081 184.86 36.6285C184.86 37.595 185.435 38.0783 186.588 38.0783H188.584L188.433 38.289ZM195.662 40.8911L198.238 37.3224L198.226 37.7561L195.778 34.3857H196.706L198.713 37.1737L198.365 37.1613L200.372 34.3857H201.277L198.806 37.7933L198.818 37.3224L201.417 40.8911H200.477L198.354 37.9172L198.678 37.9668L196.59 40.8911H195.662ZM203.811 40.8911V34.3857H204.635V39.5529L208.707 34.3857H209.438V40.8911H208.614V35.7116L204.554 40.8911H203.811ZM212.843 40.8911V34.3857H213.678L216.44 39.3794H216.092L218.899 34.3857H219.665V40.8911H218.911V35.3894L219.062 35.4637L216.44 40.0981H216.068L213.423 35.4142L213.597 35.377V40.8911H212.843ZM226.904 38.1403C226.548 38.3054 226.189 38.4376 225.825 38.5368C225.469 38.6276 225.114 38.6731 224.758 38.6731C224.039 38.6731 223.47 38.4996 223.053 38.1526C222.635 37.7974 222.426 37.2522 222.426 36.517V34.3857H223.238V36.4674C223.238 36.9631 223.389 37.3348 223.691 37.5826C223.992 37.8305 224.398 37.9544 224.909 37.9544C225.219 37.9544 225.543 37.9131 225.883 37.8305C226.223 37.7396 226.568 37.6115 226.916 37.4463L226.904 38.1403ZM226.835 40.8911V34.3857H227.658V40.8911H226.835ZM231.042 40.8911V34.3857H231.865V39.5529L235.937 34.3857H236.668V40.8911H235.845V35.7116L231.784 40.8911H231.042ZM242.626 40.9531C242.023 40.9531 241.481 40.8127 241.002 40.5318C240.529 40.2427 240.158 39.8503 239.888 39.3546C239.618 38.8506 239.482 38.2766 239.482 37.6322C239.482 36.9796 239.618 36.4055 239.888 35.9098C240.158 35.4142 240.529 35.026 241.002 34.745C241.481 34.4641 242.023 34.3237 242.626 34.3237C243.144 34.3237 243.612 34.4312 244.03 34.6459C244.447 34.8606 244.776 35.1828 245.016 35.6124L244.401 36.0585C244.192 35.728 243.933 35.4844 243.624 35.3274C243.314 35.1704 242.977 35.092 242.614 35.092C242.182 35.092 241.791 35.1994 241.442 35.4142C241.094 35.6207 240.819 35.9139 240.619 36.294C240.418 36.674 240.317 37.1201 240.317 37.6322C240.317 38.1443 240.418 38.5904 240.619 38.9705C240.819 39.3505 241.094 39.6479 241.442 39.8626C241.791 40.0692 242.182 40.1724 242.614 40.1724C242.977 40.1724 243.314 40.094 243.624 39.937C243.933 39.78 244.192 39.5405 244.401 39.2183L245.016 39.6644C244.776 40.0857 244.447 40.4079 244.03 40.6309C243.612 40.8457 243.144 40.9531 242.626 40.9531ZM248.702 40.8911V34.9185L248.911 35.154H246.393V34.3857H251.834V35.154H249.317L249.525 34.9185V40.8911H248.702ZM258.536 40.8911L256.031 37.6694L256.715 37.2357L259.511 40.8911H258.536ZM254.07 40.8911V34.3857H254.894V40.8911H254.07ZM254.638 37.9916V37.2357H256.599V37.9916H254.638ZM256.785 37.7313L256.019 37.6074L258.444 34.3857H259.337L256.785 37.7313ZM265.524 40.8911V39.4537L265.489 39.2183V36.8144C265.489 36.2609 265.342 35.8355 265.049 35.5381C264.762 35.2407 264.333 35.092 263.761 35.092C263.366 35.092 262.99 35.1623 262.635 35.3026C262.279 35.443 261.978 35.6289 261.73 35.8603L261.359 35.2035C261.668 34.9226 262.039 34.7079 262.473 34.5592C262.906 34.4022 263.362 34.3237 263.842 34.3237C264.631 34.3237 265.238 34.5344 265.663 34.9557C266.096 35.3687 266.313 36.0006 266.313 36.8516V40.8911H265.524ZM263.424 40.9531C262.967 40.9531 262.569 40.8746 262.229 40.7176C261.896 40.5525 261.641 40.3294 261.464 40.0485C261.285 39.7594 261.197 39.429 261.197 39.0572C261.197 38.7186 261.27 38.4129 261.417 38.1403C261.572 37.8593 261.819 37.6363 262.16 37.4711C262.508 37.2976 262.972 37.2109 263.552 37.2109H265.652V37.8676H263.575C262.987 37.8676 262.577 37.9792 262.345 38.2022C262.12 38.4253 262.009 38.702 262.009 39.0324C262.009 39.4042 262.143 39.7016 262.415 39.9246C262.685 40.1476 263.065 40.2592 263.552 40.2592C264.016 40.2592 264.414 40.1476 264.747 39.9246C265.087 39.6933 265.334 39.3629 265.489 38.9333L265.675 39.5405C265.52 39.9701 265.249 40.3128 264.863 40.569C264.484 40.8251 264.004 40.9531 263.424 40.9531Z" fill="#D2D2D2"/>
<path d="M1.75838 5.86173V11.1038H45.1198V0.619629H1.75838V5.86173ZM15.4674 3.45607C16.7001 4.69037 16.6412 5.30509 15.2363 6.78624C14.475 7.58974 13.3011 8.02053 11.6607 8.02053C7.736 8.02053 5.80086 6.17152 7.03355 3.64001C7.55924 2.71551 8.32062 2.46865 11.1349 2.46865C13.478 2.46865 14.8828 2.77843 15.4674 3.45607ZM35.2719 4.07564C35.92 5.49386 35.8612 5.86173 34.6285 6.84916C32.3443 8.7611 29.6479 6.4813 31.0573 3.76586C31.9908 1.85391 34.3927 2.03785 35.2719 4.07564ZM41.4852 3.20921C42.5412 4.3225 42.3055 6.66524 41.0728 7.4058C39.5501 8.26739 38.1452 7.58974 37.7328 5.79881C37.0892 3.20921 39.7269 1.36021 41.4852 3.20921Z" fill="white"/>
<path d="M1.75838 34.5455V56.1335H45.1198V12.9575H1.75838V34.5455ZM28.6508 22.8271C31.0573 24.0565 33.6904 26.9559 34.2795 28.9936C34.4517 29.6713 34.9819 30.2279 35.4487 30.2279C36.5046 30.2279 37.1482 34.4826 36.3869 36.5784C36.0379 37.5078 35.5665 38.2436 35.2719 38.2436C35.0408 38.2436 33.926 39.5408 32.929 41.0848C28.4787 47.6193 19.3378 48.055 14.3571 41.8835C12.3042 39.2939 11.6607 37.382 11.6017 33.926C11.6017 28.9936 14.3571 24.3663 18.4586 22.4543C21.0961 21.22 26.0178 21.4088 28.6508 22.8271Z" fill="white"/>
<path d="M21.2095 25.2911C17.2259 26.2785 14.0626 31.5206 15.0007 35.5914C17.3437 45.8336 31.6419 44.3524 31.6419 33.9263C31.6419 28.0066 26.7203 23.9358 21.2095 25.2911Z" fill="white"/>
</svg>
