<svg width="231" height="46" viewBox="0 0 231 46" fill="none" xmlns="http://www.w3.org/2000/svg">
<path d="M51.776 11.312H57.168V13.328H51.776V11.312ZM51.968 15.92H58.064V18H49.392V6.8H57.856V8.88H51.968V15.92ZM59.9656 18V9.392H64.3656C65.443 9.392 66.2856 9.58933 66.8936 9.984C67.5016 10.368 67.8056 10.912 67.8056 11.616C67.8056 12.32 67.5176 12.8747 66.9416 13.28C66.3763 13.6747 65.6243 13.872 64.6856 13.872L64.9416 13.296C65.987 13.296 66.7656 13.488 67.2776 13.872C67.8003 14.256 68.0616 14.816 68.0616 15.552C68.0616 16.3093 67.7736 16.9067 67.1976 17.344C66.6216 17.7813 65.7416 18 64.5576 18H59.9656ZM62.2536 16.304H64.3496C64.8083 16.304 65.1496 16.2293 65.3736 16.08C65.6083 15.92 65.7256 15.68 65.7256 15.36C65.7256 15.0293 65.619 14.7893 65.4056 14.64C65.1923 14.48 64.8563 14.4 64.3976 14.4H62.2536V16.304ZM62.2536 12.928H64.1416C64.579 12.928 64.9043 12.848 65.1176 12.688C65.3416 12.528 65.4536 12.2987 65.4536 12C65.4536 11.6907 65.3416 11.4613 65.1176 11.312C64.9043 11.1627 64.579 11.088 64.1416 11.088H62.2536V12.928ZM74.9908 18.128C74.2654 18.128 73.6308 17.968 73.0868 17.648C72.5428 17.328 72.1161 16.8427 71.8068 16.192C71.5081 15.5307 71.3588 14.6987 71.3588 13.696C71.3588 12.6827 71.5028 11.8507 71.7908 11.2C72.0788 10.5493 72.4948 10.064 73.0388 9.744C73.5828 9.424 74.2334 9.264 74.9908 9.264C75.8014 9.264 76.5268 9.45067 77.1667 9.824C77.8174 10.1867 78.3294 10.6987 78.7028 11.36C79.0868 12.0213 79.2788 12.8 79.2788 13.696C79.2788 14.6027 79.0868 15.3867 78.7028 16.048C78.3294 16.7093 77.8174 17.2213 77.1667 17.584C76.5268 17.9467 75.8014 18.128 74.9908 18.128ZM69.9028 21.104V9.392H72.2868V11.152L72.2388 13.712L72.3988 16.256V21.104H69.9028ZM74.5588 16.08C74.9748 16.08 75.3428 15.984 75.6628 15.792C75.9934 15.6 76.2548 15.328 76.4468 14.976C76.6494 14.6133 76.7508 14.1867 76.7508 13.696C76.7508 13.1947 76.6494 12.768 76.4468 12.416C76.2548 12.064 75.9934 11.792 75.6628 11.6C75.3428 11.408 74.9748 11.312 74.5588 11.312C74.1428 11.312 73.7694 11.408 73.4388 11.6C73.1081 11.792 72.8468 12.064 72.6548 12.416C72.4628 12.768 72.3668 13.1947 72.3668 13.696C72.3668 14.1867 72.4628 14.6133 72.6548 14.976C72.8468 15.328 73.1081 15.6 73.4388 15.792C73.7694 15.984 74.1428 16.08 74.5588 16.08ZM85.0601 18.128C84.1428 18.128 83.3268 17.936 82.6121 17.552C81.9081 17.168 81.3481 16.6453 80.9321 15.984C80.5268 15.312 80.3241 14.5493 80.3241 13.696C80.3241 12.832 80.5268 12.0693 80.9321 11.408C81.3481 10.736 81.9081 10.2133 82.6121 9.84C83.3268 9.456 84.1428 9.264 85.0601 9.264C85.9668 9.264 86.7775 9.456 87.4921 9.84C88.2068 10.2133 88.7668 10.7307 89.1721 11.392C89.5775 12.0533 89.7801 12.8213 89.7801 13.696C89.7801 14.5493 89.5775 15.312 89.1721 15.984C88.7668 16.6453 88.2068 17.168 87.4921 17.552C86.7775 17.936 85.9668 18.128 85.0601 18.128ZM85.0601 16.08C85.4761 16.08 85.8495 15.984 86.1801 15.792C86.5108 15.6 86.7721 15.328 86.9641 14.976C87.1561 14.6133 87.2521 14.1867 87.2521 13.696C87.2521 13.1947 87.1561 12.768 86.9641 12.416C86.7721 12.064 86.5108 11.792 86.1801 11.6C85.8495 11.408 85.4761 11.312 85.0601 11.312C84.6441 11.312 84.2708 11.408 83.9401 11.6C83.6095 11.792 83.3428 12.064 83.1401 12.416C82.9481 12.768 82.8521 13.1947 82.8521 13.696C82.8521 14.1867 82.9481 14.6133 83.1401 14.976C83.3428 15.328 83.6095 15.6 83.9401 15.792C84.2708 15.984 84.6441 16.08 85.0601 16.08ZM96.9209 14.704C96.5689 14.896 96.1795 15.0507 95.7529 15.168C95.3262 15.2853 94.8569 15.344 94.3449 15.344C93.2142 15.344 92.3449 15.088 91.7369 14.576C91.1289 14.0533 90.8249 13.2267 90.8249 12.096V9.392H93.3209V11.936C93.3209 12.4693 93.4595 12.8533 93.7369 13.088C94.0142 13.312 94.4035 13.424 94.9049 13.424C95.2675 13.424 95.6142 13.3813 95.9449 13.296C96.2862 13.2107 96.6115 13.088 96.9209 12.928V14.704ZM96.7449 18V9.392H99.2409V18H96.7449ZM101.638 18V9.392H104.118V14.512L108.31 9.392H110.598V18H108.118V12.88L103.942 18H101.638ZM117.093 18.128C116.165 18.128 115.338 17.9413 114.613 17.568C113.888 17.184 113.317 16.656 112.901 15.984C112.496 15.312 112.293 14.5493 112.293 13.696C112.293 12.832 112.496 12.0693 112.901 11.408C113.317 10.736 113.888 10.2133 114.613 9.84C115.338 9.456 116.165 9.264 117.093 9.264C118 9.264 118.789 9.456 119.461 9.84C120.133 10.2133 120.629 10.752 120.949 11.456L119.013 12.496C118.789 12.0907 118.506 11.792 118.165 11.6C117.834 11.408 117.472 11.312 117.077 11.312C116.65 11.312 116.266 11.408 115.925 11.6C115.584 11.792 115.312 12.064 115.109 12.416C114.917 12.768 114.821 13.1947 114.821 13.696C114.821 14.1973 114.917 14.624 115.109 14.976C115.312 15.328 115.584 15.6 115.925 15.792C116.266 15.984 116.65 16.08 117.077 16.08C117.472 16.08 117.834 15.9893 118.165 15.808C118.506 15.616 118.789 15.312 119.013 14.896L120.949 15.952C120.629 16.6453 120.133 17.184 119.461 17.568C118.789 17.9413 118 18.128 117.093 18.128ZM124.29 18V10.864L124.85 11.44H121.378V9.392H129.682V11.44H126.21L126.77 10.864V18H124.29ZM137.109 18L134.229 13.92L136.261 12.72L140.053 18H137.109ZM131.013 18V9.392H133.509V18H131.013ZM132.773 14.736V12.736H135.781V14.736H132.773ZM136.501 13.984L134.165 13.728L137.189 9.392H139.845L136.501 13.984ZM146.274 18V16.32L146.114 15.952V12.944C146.114 12.4107 145.949 11.9947 145.618 11.696C145.298 11.3973 144.802 11.248 144.13 11.248C143.671 11.248 143.218 11.3227 142.77 11.472C142.333 11.6107 141.959 11.8027 141.65 12.048L140.754 10.304C141.223 9.97333 141.789 9.71733 142.45 9.536C143.111 9.35467 143.783 9.264 144.466 9.264C145.778 9.264 146.797 9.57333 147.522 10.192C148.247 10.8107 148.61 11.776 148.61 13.088V18H146.274ZM143.65 18.128C142.978 18.128 142.402 18.016 141.922 17.792C141.442 17.5573 141.074 17.2427 140.818 16.848C140.562 16.4533 140.434 16.0107 140.434 15.52C140.434 15.008 140.557 14.56 140.802 14.176C141.058 13.792 141.458 13.4933 142.002 13.28C142.546 13.056 143.255 12.944 144.13 12.944H146.418V14.4H144.402C143.815 14.4 143.41 14.496 143.186 14.688C142.973 14.88 142.866 15.12 142.866 15.408C142.866 15.728 142.989 15.984 143.234 16.176C143.49 16.3573 143.837 16.448 144.274 16.448C144.69 16.448 145.063 16.352 145.394 16.16C145.725 15.9573 145.965 15.664 146.114 15.28L146.498 16.432C146.317 16.9867 145.986 17.408 145.506 17.696C145.026 17.984 144.407 18.128 143.65 18.128Z" fill="black"/>
<path d="M50.01 33V27.75H54.73V33H54.02V28.18L54.2 28.37H50.54L50.72 28.18V33H50.01ZM60.3583 33.05C59.9049 33.05 59.4949 32.9467 59.1283 32.74C58.7616 32.5267 58.4683 32.2233 58.2483 31.83C58.0349 31.43 57.9283 30.9433 57.9283 30.37C57.9283 29.7967 58.0349 29.3133 58.2483 28.92C58.4616 28.52 58.7516 28.2167 59.1183 28.01C59.4849 27.8033 59.8983 27.7 60.3583 27.7C60.8583 27.7 61.3049 27.8133 61.6983 28.04C62.0983 28.26 62.4116 28.5733 62.6383 28.98C62.8649 29.38 62.9783 29.8433 62.9783 30.37C62.9783 30.9033 62.8649 31.37 62.6383 31.77C62.4116 32.17 62.0983 32.4833 61.6983 32.71C61.3049 32.9367 60.8583 33.05 60.3583 33.05ZM57.6483 34.94V27.75H58.3283V29.33L58.2583 30.38L58.3583 31.44V34.94H57.6483ZM60.3083 32.42C60.6816 32.42 61.0149 32.3367 61.3083 32.17C61.6016 31.9967 61.8349 31.7567 62.0083 31.45C62.1816 31.1367 62.2683 30.7767 62.2683 30.37C62.2683 29.9633 62.1816 29.6067 62.0083 29.3C61.8349 28.9933 61.6016 28.7533 61.3083 28.58C61.0149 28.4067 60.6816 28.32 60.3083 28.32C59.9349 28.32 59.5983 28.4067 59.2983 28.58C59.0049 28.7533 58.7716 28.9933 58.5983 29.3C58.4316 29.6067 58.3483 29.9633 58.3483 30.37C58.3483 30.7767 58.4316 31.1367 58.5983 31.45C58.7716 31.7567 59.0049 31.9967 59.2983 32.17C59.5983 32.3367 59.9349 32.42 60.3083 32.42ZM67.5638 33.05C67.0571 33.05 66.6004 32.9367 66.1938 32.71C65.7938 32.4767 65.4771 32.16 65.2438 31.76C65.0104 31.3533 64.8938 30.89 64.8938 30.37C64.8938 29.8433 65.0104 29.38 65.2438 28.98C65.4771 28.58 65.7938 28.2667 66.1938 28.04C66.5938 27.8133 67.0504 27.7 67.5638 27.7C68.0838 27.7 68.5438 27.8133 68.9438 28.04C69.3504 28.2667 69.6671 28.58 69.8938 28.98C70.1271 29.38 70.2438 29.8433 70.2438 30.37C70.2438 30.89 70.1271 31.3533 69.8938 31.76C69.6671 32.16 69.3504 32.4767 68.9438 32.71C68.5371 32.9367 68.0771 33.05 67.5638 33.05ZM67.5638 32.42C67.9438 32.42 68.2804 32.3367 68.5738 32.17C68.8671 31.9967 69.0971 31.7567 69.2638 31.45C69.4371 31.1367 69.5238 30.7767 69.5238 30.37C69.5238 29.9567 69.4371 29.5967 69.2638 29.29C69.0971 28.9833 68.8671 28.7467 68.5738 28.58C68.2804 28.4067 67.9471 28.32 67.5738 28.32C67.2004 28.32 66.8671 28.4067 66.5738 28.58C66.2804 28.7467 66.0471 28.9833 65.8738 29.29C65.7004 29.5967 65.6138 29.9567 65.6138 30.37C65.6138 30.7767 65.7004 31.1367 65.8738 31.45C66.0471 31.7567 66.2804 31.9967 66.5738 32.17C66.8671 32.3367 67.1971 32.42 67.5638 32.42ZM75.6112 33.06C75.6112 33.06 75.5978 33.06 75.5712 33.06C75.5445 33.06 75.5178 33.06 75.4912 33.06C75.4712 33.06 75.4545 33.06 75.4412 33.06C74.4012 33.0533 73.5912 32.8167 73.0112 32.35C72.4312 31.8833 72.1412 31.22 72.1412 30.36C72.1412 29.5133 72.4312 28.86 73.0112 28.4C73.5978 27.9333 74.4212 27.6967 75.4812 27.69C75.4878 27.69 75.5012 27.69 75.5212 27.69C75.5478 27.69 75.5712 27.69 75.5912 27.69C75.6112 27.69 75.6245 27.69 75.6312 27.69C76.6978 27.6967 77.5278 27.9333 78.1212 28.4C78.7145 28.86 79.0112 29.5133 79.0112 30.36C79.0112 31.2267 78.7112 31.8933 78.1112 32.36C77.5178 32.8267 76.6845 33.06 75.6112 33.06ZM75.6012 32.44C76.1945 32.44 76.6912 32.36 77.0912 32.2C77.4912 32.0333 77.7945 31.7967 78.0012 31.49C78.2078 31.1833 78.3112 30.8067 78.3112 30.36C78.3112 29.9267 78.2078 29.56 78.0012 29.26C77.7945 28.9533 77.4912 28.72 77.0912 28.56C76.6912 28.4 76.1945 28.32 75.6012 28.32C75.5945 28.32 75.5745 28.32 75.5412 28.32C75.5145 28.32 75.4978 28.32 75.4912 28.32C74.9112 28.32 74.4245 28.4033 74.0312 28.57C73.6378 28.73 73.3412 28.96 73.1412 29.26C72.9412 29.56 72.8412 29.9267 72.8412 30.36C72.8412 30.8 72.9412 31.1733 73.1412 31.48C73.3478 31.7867 73.6478 32.0233 74.0412 32.19C74.4345 32.35 74.9178 32.4333 75.4912 32.44C75.5045 32.44 75.5245 32.44 75.5512 32.44C75.5778 32.44 75.5945 32.44 75.6012 32.44ZM75.2212 34.94V25.58H75.9112V34.94H75.2212ZM83.6627 33.05C83.1161 33.05 82.6361 32.9367 82.2227 32.71C81.8094 32.4767 81.4861 32.16 81.2527 31.76C81.0194 31.3533 80.9027 30.89 80.9027 30.37C80.9027 29.85 81.0127 29.39 81.2327 28.99C81.4594 28.59 81.7661 28.2767 82.1527 28.05C82.5461 27.8167 82.9861 27.7 83.4727 27.7C83.9661 27.7 84.4027 27.8133 84.7827 28.04C85.1694 28.26 85.4727 28.5733 85.6927 28.98C85.9127 29.38 86.0227 29.8433 86.0227 30.37C86.0227 30.4033 86.0194 30.44 86.0127 30.48C86.0127 30.5133 86.0127 30.55 86.0127 30.59H81.4427V30.06H85.6327L85.3527 30.27C85.3527 29.89 85.2694 29.5533 85.1027 29.26C84.9427 28.96 84.7227 28.7267 84.4427 28.56C84.1627 28.3933 83.8394 28.31 83.4727 28.31C83.1127 28.31 82.7894 28.3933 82.5027 28.56C82.2161 28.7267 81.9927 28.96 81.8327 29.26C81.6727 29.56 81.5927 29.9033 81.5927 30.29V30.4C81.5927 30.8 81.6794 31.1533 81.8527 31.46C82.0327 31.76 82.2794 31.9967 82.5927 32.17C82.9127 32.3367 83.2761 32.42 83.6827 32.42C84.0027 32.42 84.2994 32.3633 84.5727 32.25C84.8527 32.1367 85.0927 31.9633 85.2927 31.73L85.6927 32.19C85.4594 32.47 85.1661 32.6833 84.8127 32.83C84.4661 32.9767 84.0827 33.05 83.6627 33.05ZM90.6944 33.05C90.1744 33.05 89.7077 32.9367 89.2944 32.71C88.8877 32.4767 88.5677 32.16 88.3344 31.76C88.101 31.3533 87.9844 30.89 87.9844 30.37C87.9844 29.8433 88.101 29.38 88.3344 28.98C88.5677 28.58 88.8877 28.2667 89.2944 28.04C89.7077 27.8133 90.1744 27.7 90.6944 27.7C91.141 27.7 91.5444 27.7867 91.9044 27.96C92.2644 28.1333 92.5477 28.3933 92.7544 28.74L92.2244 29.1C92.0444 28.8333 91.821 28.6367 91.5544 28.51C91.2877 28.3833 90.9977 28.32 90.6844 28.32C90.311 28.32 89.9744 28.4067 89.6744 28.58C89.3744 28.7467 89.1377 28.9833 88.9644 29.29C88.791 29.5967 88.7044 29.9567 88.7044 30.37C88.7044 30.7833 88.791 31.1433 88.9644 31.45C89.1377 31.7567 89.3744 31.9967 89.6744 32.17C89.9744 32.3367 90.311 32.42 90.6844 32.42C90.9977 32.42 91.2877 32.3567 91.5544 32.23C91.821 32.1033 92.0444 31.91 92.2244 31.65L92.7544 32.01C92.5477 32.35 92.2644 32.61 91.9044 32.79C91.5444 32.9633 91.141 33.05 90.6944 33.05ZM97.1413 33.05C96.6213 33.05 96.1546 32.9367 95.7413 32.71C95.3346 32.4767 95.0146 32.16 94.7813 31.76C94.5479 31.3533 94.4313 30.89 94.4313 30.37C94.4313 29.8433 94.5479 29.38 94.7813 28.98C95.0146 28.58 95.3346 28.2667 95.7413 28.04C96.1546 27.8133 96.6213 27.7 97.1413 27.7C97.5879 27.7 97.9913 27.7867 98.3513 27.96C98.7113 28.1333 98.9946 28.3933 99.2013 28.74L98.6713 29.1C98.4913 28.8333 98.2679 28.6367 98.0013 28.51C97.7346 28.3833 97.4446 28.32 97.1313 28.32C96.7579 28.32 96.4213 28.4067 96.1213 28.58C95.8213 28.7467 95.5846 28.9833 95.4113 29.29C95.2379 29.5967 95.1513 29.9567 95.1513 30.37C95.1513 30.7833 95.2379 31.1433 95.4113 31.45C95.5846 31.7567 95.8213 31.9967 96.1213 32.17C96.4213 32.3367 96.7579 32.42 97.1313 32.42C97.4446 32.42 97.7346 32.3567 98.0013 32.23C98.2679 32.1033 98.4913 31.91 98.6713 31.65L99.2013 32.01C98.9946 32.35 98.7113 32.61 98.3513 32.79C97.9913 32.9633 97.5879 33.05 97.1413 33.05ZM101.476 33V27.75H102.186V31.92L105.696 27.75H106.326V33H105.616V28.82L102.116 33H101.476ZM111.421 33.05C110.914 33.05 110.457 32.9367 110.051 32.71C109.651 32.4767 109.334 32.16 109.101 31.76C108.867 31.3533 108.751 30.89 108.751 30.37C108.751 29.8433 108.867 29.38 109.101 28.98C109.334 28.58 109.651 28.2667 110.051 28.04C110.451 27.8133 110.907 27.7 111.421 27.7C111.941 27.7 112.401 27.8133 112.801 28.04C113.207 28.2667 113.524 28.58 113.751 28.98C113.984 29.38 114.101 29.8433 114.101 30.37C114.101 30.89 113.984 31.3533 113.751 31.76C113.524 32.16 113.207 32.4767 112.801 32.71C112.394 32.9367 111.934 33.05 111.421 33.05ZM111.421 32.42C111.801 32.42 112.137 32.3367 112.431 32.17C112.724 31.9967 112.954 31.7567 113.121 31.45C113.294 31.1367 113.381 30.7767 113.381 30.37C113.381 29.9567 113.294 29.5967 113.121 29.29C112.954 28.9833 112.724 28.7467 112.431 28.58C112.137 28.4067 111.804 28.32 111.431 28.32C111.057 28.32 110.724 28.4067 110.431 28.58C110.137 28.7467 109.904 28.9833 109.731 29.29C109.557 29.5967 109.471 29.9567 109.471 30.37C109.471 30.7767 109.557 31.1367 109.731 31.45C109.904 31.7567 110.137 31.9967 110.431 32.17C110.724 32.3367 111.054 32.42 111.421 32.42ZM116.518 33V27.75H117.228V30.07H120.538V27.75H121.248V33H120.538V30.68H117.228V33H116.518ZM127.426 33V31.84L127.396 31.65V29.71C127.396 29.2633 127.27 28.92 127.016 28.68C126.77 28.44 126.4 28.32 125.906 28.32C125.566 28.32 125.243 28.3767 124.936 28.49C124.63 28.6033 124.37 28.7533 124.156 28.94L123.836 28.41C124.103 28.1833 124.423 28.01 124.796 27.89C125.17 27.7633 125.563 27.7 125.976 27.7C126.656 27.7 127.18 27.87 127.546 28.21C127.92 28.5433 128.106 29.0533 128.106 29.74V33H127.426ZM125.616 33.05C125.223 33.05 124.88 32.9867 124.586 32.86C124.3 32.7267 124.08 32.5467 123.926 32.32C123.773 32.0867 123.696 31.82 123.696 31.52C123.696 31.2467 123.76 31 123.886 30.78C124.02 30.5533 124.233 30.3733 124.526 30.24C124.826 30.1 125.226 30.03 125.726 30.03H127.536V30.56H125.746C125.24 30.56 124.886 30.65 124.686 30.83C124.493 31.01 124.396 31.2333 124.396 31.5C124.396 31.8 124.513 32.04 124.746 32.22C124.98 32.4 125.306 32.49 125.726 32.49C126.126 32.49 126.47 32.4 126.756 32.22C127.05 32.0333 127.263 31.7667 127.396 31.42L127.556 31.91C127.423 32.2567 127.19 32.5333 126.856 32.74C126.53 32.9467 126.116 33.05 125.616 33.05ZM129.936 32.99L129.986 32.38C130.033 32.3867 130.076 32.3967 130.116 32.41C130.163 32.4167 130.203 32.42 130.236 32.42C130.45 32.42 130.62 32.34 130.746 32.18C130.88 32.02 130.98 31.8067 131.046 31.54C131.113 31.2733 131.16 30.9733 131.186 30.64C131.213 30.3 131.236 29.96 131.256 29.62L131.346 27.75H135.196V33H134.486V28.16L134.666 28.37H131.806L131.976 28.15L131.896 29.67C131.876 30.1233 131.84 30.5567 131.786 30.97C131.74 31.3833 131.663 31.7467 131.556 32.06C131.456 32.3733 131.316 32.62 131.136 32.8C130.956 32.9733 130.726 33.06 130.446 33.06C130.366 33.06 130.283 33.0533 130.196 33.04C130.116 33.0267 130.03 33.01 129.936 32.99ZM140.375 29.6C141.035 29.6067 141.535 29.7533 141.875 30.04C142.221 30.3267 142.395 30.74 142.395 31.28C142.395 31.84 142.208 32.27 141.835 32.57C141.468 32.87 140.935 33.0167 140.235 33.01L138.115 33V27.75H138.825V29.58L140.375 29.6ZM140.195 32.47C140.681 32.4767 141.048 32.38 141.295 32.18C141.548 31.9733 141.675 31.6733 141.675 31.28C141.675 30.8867 141.551 30.6 141.305 30.42C141.058 30.2333 140.688 30.1367 140.195 30.13L138.825 30.11V32.45L140.195 32.47ZM144.649 33V27.75H145.359V30.07H148.669V27.75H149.379V33H148.669V30.68H145.359V33H144.649ZM155.557 33V31.84L155.527 31.65V29.71C155.527 29.2633 155.401 28.92 155.147 28.68C154.901 28.44 154.531 28.32 154.037 28.32C153.697 28.32 153.374 28.3767 153.067 28.49C152.761 28.6033 152.501 28.7533 152.287 28.94L151.967 28.41C152.234 28.1833 152.554 28.01 152.927 27.89C153.301 27.7633 153.694 27.7 154.107 27.7C154.787 27.7 155.311 27.87 155.677 28.21C156.051 28.5433 156.237 29.0533 156.237 29.74V33H155.557ZM153.747 33.05C153.354 33.05 153.011 32.9867 152.717 32.86C152.431 32.7267 152.211 32.5467 152.057 32.32C151.904 32.0867 151.827 31.82 151.827 31.52C151.827 31.2467 151.891 31 152.017 30.78C152.151 30.5533 152.364 30.3733 152.657 30.24C152.957 30.1 153.357 30.03 153.857 30.03H155.667V30.56H153.877C153.371 30.56 153.017 30.65 152.817 30.83C152.624 31.01 152.527 31.2333 152.527 31.5C152.527 31.8 152.644 32.04 152.877 32.22C153.111 32.4 153.437 32.49 153.857 32.49C154.257 32.49 154.601 32.4 154.887 32.22C155.181 32.0333 155.394 31.7667 155.527 31.42L155.687 31.91C155.554 32.2567 155.321 32.5333 154.987 32.74C154.661 32.9467 154.247 33.05 153.747 33.05ZM162.418 33V31.11L162.548 31.26H160.768C160.094 31.26 159.568 31.1133 159.188 30.82C158.808 30.5267 158.618 30.1 158.618 29.54C158.618 28.94 158.821 28.4933 159.228 28.2C159.634 27.9 160.178 27.75 160.858 27.75H163.068V33H162.418ZM158.578 33L160.018 30.98H160.758L159.348 33H158.578ZM162.418 30.9V28.16L162.548 28.37H160.878C160.391 28.37 160.011 28.4633 159.738 28.65C159.471 28.8367 159.338 29.14 159.338 29.56C159.338 30.34 159.834 30.73 160.828 30.73H162.548L162.418 30.9ZM168.649 33L170.869 30.12L170.859 30.47L168.749 27.75H169.549L171.279 30L170.979 29.99L172.709 27.75H173.489L171.359 30.5L171.369 30.12L173.609 33H172.799L170.969 30.6L171.249 30.64L169.449 33H168.649ZM175.673 33V27.75H176.383V31.92L179.893 27.75H180.523V33H179.813V28.82L176.313 33H175.673ZM183.458 33V27.75H184.178L186.558 31.78H186.258L188.678 27.75H189.338V33H188.688V28.56L188.818 28.62L186.558 32.36H186.238L183.958 28.58L184.108 28.55V33H183.458ZM195.578 30.78C195.271 30.9133 194.961 31.02 194.648 31.1C194.341 31.1733 194.035 31.21 193.728 31.21C193.108 31.21 192.618 31.07 192.258 30.79C191.898 30.5033 191.718 30.0633 191.718 29.47V27.75H192.418V29.43C192.418 29.83 192.548 30.13 192.808 30.33C193.068 30.53 193.418 30.63 193.858 30.63C194.125 30.63 194.405 30.5967 194.698 30.53C194.991 30.4567 195.288 30.3533 195.588 30.22L195.578 30.78ZM195.518 33V27.75H196.228V33H195.518ZM199.144 33V27.75H199.854V31.92L203.364 27.75H203.994V33H203.284V28.82L199.784 33H199.144ZM209.129 33.05C208.609 33.05 208.142 32.9367 207.729 32.71C207.322 32.4767 207.002 32.16 206.769 31.76C206.536 31.3533 206.419 30.89 206.419 30.37C206.419 29.8433 206.536 29.38 206.769 28.98C207.002 28.58 207.322 28.2667 207.729 28.04C208.142 27.8133 208.609 27.7 209.129 27.7C209.576 27.7 209.979 27.7867 210.339 27.96C210.699 28.1333 210.982 28.3933 211.189 28.74L210.659 29.1C210.479 28.8333 210.256 28.6367 209.989 28.51C209.722 28.3833 209.432 28.32 209.119 28.32C208.746 28.32 208.409 28.4067 208.109 28.58C207.809 28.7467 207.572 28.9833 207.399 29.29C207.226 29.5967 207.139 29.9567 207.139 30.37C207.139 30.7833 207.226 31.1433 207.399 31.45C207.572 31.7567 207.809 31.9967 208.109 32.17C208.409 32.3367 208.746 32.42 209.119 32.42C209.432 32.42 209.722 32.3567 209.989 32.23C210.256 32.1033 210.479 31.91 210.659 31.65L211.189 32.01C210.982 32.35 210.699 32.61 210.339 32.79C209.979 32.9633 209.576 33.05 209.129 33.05ZM214.366 33V28.18L214.546 28.37H212.376V27.75H217.066V28.37H214.896L215.076 28.18V33H214.366ZM222.843 33L220.683 30.4L221.273 30.05L223.683 33H222.843ZM218.993 33V27.75H219.703V33H218.993ZM219.483 30.66V30.05H221.173V30.66H219.483ZM221.333 30.45L220.673 30.35L222.763 27.75H223.533L221.333 30.45ZM228.866 33V31.84L228.836 31.65V29.71C228.836 29.2633 228.709 28.92 228.456 28.68C228.209 28.44 227.839 28.32 227.346 28.32C227.006 28.32 226.682 28.3767 226.376 28.49C226.069 28.6033 225.809 28.7533 225.596 28.94L225.276 28.41C225.542 28.1833 225.862 28.01 226.236 27.89C226.609 27.7633 227.002 27.7 227.416 27.7C228.096 27.7 228.619 27.87 228.986 28.21C229.359 28.5433 229.546 29.0533 229.546 29.74V33H228.866ZM227.056 33.05C226.662 33.05 226.319 32.9867 226.026 32.86C225.739 32.7267 225.519 32.5467 225.366 32.32C225.212 32.0867 225.136 31.82 225.136 31.52C225.136 31.2467 225.199 31 225.326 30.78C225.459 30.5533 225.672 30.3733 225.966 30.24C226.266 30.1 226.666 30.03 227.166 30.03H228.976V30.56H227.186C226.679 30.56 226.326 30.65 226.126 30.83C225.932 31.01 225.836 31.2333 225.836 31.5C225.836 31.8 225.952 32.04 226.186 32.22C226.419 32.4 226.746 32.49 227.166 32.49C227.566 32.49 227.909 32.4 228.196 32.22C228.489 32.0333 228.702 31.7667 228.836 31.42L228.996 31.91C228.862 32.2567 228.629 32.5333 228.296 32.74C227.969 32.9467 227.556 33.05 227.056 33.05Z" fill="#A3A1A1"/>
<path d="M1.51562 4.73047V8.96094H38.8906V0.5H1.51562V4.73047ZM13.332 2.78906C14.3945 3.78516 14.3437 4.28125 13.1328 5.47656C12.4766 6.125 11.4648 6.47266 10.0508 6.47266C6.66797 6.47266 5 4.98047 6.0625 2.9375C6.51562 2.19141 7.17188 1.99219 9.59766 1.99219C11.6172 1.99219 12.8281 2.24219 13.332 2.78906ZM30.4023 3.28906C30.9609 4.43359 30.9102 4.73047 29.8477 5.52734C27.8789 7.07031 25.5547 5.23047 26.7695 3.03906C27.5742 1.49609 29.6445 1.64453 30.4023 3.28906ZM35.7578 2.58984C36.668 3.48828 36.4648 5.37891 35.4023 5.97656C34.0898 6.67188 32.8789 6.125 32.5234 4.67969C31.9687 2.58984 34.2422 1.09766 35.7578 2.58984Z" fill="black"/>
<path d="M1.51562 27.8789V45.3008H38.8906V10.457H1.51562V27.8789ZM24.6953 18.4219C26.7695 19.4141 29.0391 21.7539 29.5469 23.3984C29.6953 23.9453 30.1523 24.3945 30.5547 24.3945C31.4648 24.3945 32.0195 27.8281 31.3633 29.5195C31.0625 30.2695 30.6562 30.8633 30.4023 30.8633C30.2031 30.8633 29.2422 31.9102 28.3828 33.1562C24.5469 38.4297 16.668 38.7813 12.375 33.8008C10.6055 31.7109 10.0508 30.168 10 27.3789C10 23.3984 12.375 19.6641 15.9102 18.1211C18.1836 17.125 22.4258 17.2773 24.6953 18.4219Z" fill="black"/>
<path d="M18.2813 20.4102C14.8477 21.207 12.1211 25.4375 12.9297 28.7227C14.9492 36.9883 27.2734 35.793 27.2734 27.3789C27.2734 22.6016 23.0313 19.3164 18.2813 20.4102Z" fill="black"/>
</svg>
